<?xml version="1.0" standalone="no"?>
<!DOCTYPE svg PUBLIC "-//W3C//DTD SVG 20010904//EN"
 "http://www.w3.org/TR/2001/REC-SVG-20010904/DTD/svg10.dtd">
<svg version="1.0" xmlns="http://www.w3.org/2000/svg"
 width="300.000000pt" height="300.000000pt" viewBox="0 0 300.000000 300.000000"
 preserveAspectRatio="xMidYMid meet">
<metadata>
Created by potrace 1.10, written by Peter Selinger 2001-2011
</metadata>
<g transform="translate(0.000000,300.000000) scale(0.100000,-0.10000)"
fill="#EE82EE" stroke="none">
<path d="M1383 2977 c-55 -29 -86 -56 -120 -108 -26 -40 -28 -50 -28 -143 0
-87 4 -111 29 -176 25 -65 53 -122 84 -168 7 -10 22 -12 56 -7 l46 7 0 309 c0
241 -3 309 -12 309 -7 0 -32 -11 -55 -23z"/>
<path d="M1527 2888 c4 -62 8 -201 8 -309 l0 -197 45 -5 c25 -3 49 -2 53 3 16
14 78 164 97 235 33 116 21 217 -34 290 -24 31 -133 95 -163 95 -12 0 -13 -19
-6 -112z"/>
<path d="M2057 2829 c-92 -22 -160 -79 -201 -169 -27 -60 -79 -271 -74 -303 2
-13 17 -24 46 -34 54 -18 60 -13 110 76 91 164 159 262 251 362 l54 59 -27 10
c-32 12 -106 12 -159 -1z"/>
<path d="M825 2822 c-88 -8 -92 -18 -36 -77 63 -64 176 -222 231 -322 28 -50
58 -101 68 -113 l17 -21 49 20 48 21 -7 53 c-10 78 -44 205 -72 264 -27 59
-99 138 -140 154 -35 14 -119 25 -158 21z"/>
<path d="M2250 2748 c-14 -29 -50 -91 -81 -138 -110 -169 -209 -331 -209 -343
0 -7 21 -25 46 -41 l47 -30 46 25 c25 13 82 59 127 101 87 83 141 171 151 245
8 60 -21 148 -65 195 l-38 40 -24 -54z"/>
<path d="M677 2753 c-77 -81 -82 -245 -10 -340 19 -27 88 -88 244 -220 15 -12
23 -10 63 18 25 18 46 37 46 42 0 14 -19 46 -127 210 -92 140 -151 245 -167
300 -7 24 -18 21 -49 -10z"/>
<path d="M338 2357 c-59 -23 -137 -95 -123 -116 3 -5 20 -12 38 -16 113 -23
319 -116 444 -202 l62 -42 21 28 c26 37 25 44 -9 116 -39 85 -132 182 -201
213 -68 30 -178 39 -232 19z"/>
<path d="M2479 2361 c-91 -19 -207 -119 -259 -224 -36 -71 -36 -83 -7 -119
l22 -27 70 41 c138 80 272 142 384 178 l113 37 -31 35 c-17 20 -52 46 -77 58
-51 23 -155 34 -215 21z"/>
<path d="M180 2121 c0 -46 7 -71 33 -121 38 -74 81 -110 170 -139 61 -20 246
-61 278 -61 11 0 22 17 32 48 l16 47 -31 32 c-32 34 -262 156 -408 217 -46 20
-86 36 -87 36 -2 0 -3 -26 -3 -59z"/>
<path d="M2745 2148 c-78 -30 -407 -195 -434 -216 -24 -19 -24 -22 -12 -60 23
-69 18 -67 133 -53 122 15 215 44 277 86 55 37 108 133 118 213 7 61 1 63 -82
30z"/>
<path d="M1905 2078 c-27 -11 -90 -30 -140 -44 -117 -31 -176 -48 -255 -73
-83 -26 -100 -27 -100 -1 0 19 -4 20 -37 14 -21 -4 -41 -9 -45 -11 -5 -2 -8
-143 -8 -314 0 -170 -2 -309 -4 -309 -2 0 -20 7 -39 15 -53 22 -103 18 -158
-11 -65 -36 -101 -90 -107 -160 -9 -110 56 -204 154 -224 104 -22 186 17 231
107 l28 58 -2 230 -2 231 67 18 c37 11 126 38 197 61 72 23 145 46 164 50 l34
7 -7 -32 c-3 -18 -6 -88 -6 -157 0 -119 -1 -123 -19 -113 -30 16 -113 12 -141
-7 -87 -58 -124 -121 -118 -203 8 -105 94 -190 193 -190 125 0 226 138 196
269 -5 25 -7 176 -4 369 6 306 1 443 -15 441 -4 0 -29 -10 -57 -21z m-35 -188
l0 -49 -72 -21 c-40 -11 -134 -41 -208 -66 -74 -25 -142 -47 -150 -50 -12 -4
-16 6 -17 54 l-1 59 41 11 c23 5 74 20 112 32 39 12 110 32 158 45 49 13 91
26 94 29 4 3 15 6 25 6 15 0 18 -8 18 -50z m-18 -597 c59 -56 23 -153 -57
-153 -43 0 -95 45 -95 82 0 25 22 65 48 86 27 21 73 14 104 -15z m-574 -63
c16 -16 33 -41 36 -55 9 -36 -19 -84 -60 -101 -29 -12 -39 -12 -68 0 -42 17
-70 67 -61 105 3 14 18 38 33 54 36 37 81 37 120 -3z"/>
<path d="M2614 1746 c-130 -30 -256 -122 -239 -176 6 -18 16 -20 113 -20 59 0
192 -5 295 -11 103 -6 190 -9 193 -6 11 11 -17 76 -52 121 -65 86 -183 120
-310 92z"/>
<path d="M186 1735 c-68 -24 -156 -131 -156 -189 0 -17 8 -18 98 -12 53 3 188
9 300 12 202 7 202 7 202 29 0 25 -81 105 -134 132 -81 42 -233 56 -310 28z"/>
<path d="M248 1452 c-235 -3 -229 -1 -208 -56 14 -38 79 -105 124 -128 115
-59 299 -17 419 96 34 32 48 52 45 67 -4 25 -22 26 -380 21z"/>
<path d="M2376 1430 c-7 -35 16 -66 83 -109 119 -77 290 -102 384 -57 45 22
104 91 122 143 l13 38 -56 2 c-32 2 -166 4 -299 5 l-242 3 -5 -25z"/>
<path d="M535 1180 c-95 -15 -210 -59 -255 -97 -60 -52 -100 -139 -100 -220 0
-35 3 -63 8 -63 14 1 207 106 277 151 39 25 107 67 152 93 46 26 85 52 89 57
3 5 0 25 -7 44 -10 25 -19 35 -35 35 -12 0 -34 2 -50 4 -16 2 -51 1 -79 -4z"/>
<path d="M2324 1179 c-13 -16 -44 -75 -44 -83 0 -3 46 -29 102 -57 91 -46 218
-120 366 -216 44 -28 53 -31 59 -17 11 29 -5 151 -25 191 -24 46 -84 104 -131
128 -95 48 -305 82 -327 54z"/>
<path d="M705 996 c-27 -12 -93 -51 -145 -85 -52 -34 -150 -89 -217 -122 -68
-32 -123 -63 -123 -68 0 -15 62 -62 105 -81 100 -43 203 -29 276 37 52 47 184
204 204 243 15 29 15 32 -11 65 -14 19 -29 35 -33 35 -3 0 -28 -11 -56 -24z"/>
<path d="M2207 980 l-27 -39 26 -48 c63 -114 164 -221 240 -253 56 -25 163
-26 225 -5 39 14 109 69 109 86 0 3 -46 29 -102 56 -57 27 -151 80 -210 116
-107 66 -169 100 -211 116 -19 7 -27 3 -50 -29z"/>
<path d="M880 787 c-67 -39 -193 -157 -225 -211 -57 -98 -55 -209 5 -308 20
-34 42 -64 48 -66 6 -2 14 9 18 25 17 70 177 352 258 457 25 32 46 62 46 66 0
4 -11 15 -25 24 -76 49 -65 48 -125 13z"/>
<path d="M2004 778 l-42 -30 62 -91 c67 -100 174 -294 216 -394 l27 -63 25 28
c39 41 69 108 75 167 15 140 -84 282 -267 383 l-55 31 -41 -31z"/>
<path d="M1057 642 c-29 -42 -71 -106 -92 -142 -51 -86 -110 -183 -152 -247
-18 -29 -33 -57 -33 -62 0 -13 74 -22 123 -15 110 17 187 87 236 214 29 74 69
276 57 287 -3 4 -24 14 -46 24 l-39 18 -54 -77z"/>
<path d="M1820 685 c-33 -12 -35 -15 -34 -58 2 -57 40 -208 69 -274 30 -66 94
-136 150 -162 54 -25 205 -31 205 -8 0 7 -34 64 -75 127 -41 63 -85 135 -97
160 -56 117 -139 231 -166 229 -9 -1 -33 -7 -52 -14z"/>
<path d="M1331 606 c-12 -19 -39 -84 -61 -146 -45 -124 -51 -199 -25 -286 25
-85 81 -136 183 -168 l22 -7 0 315 0 316 -34 0 c-19 0 -41 3 -49 6 -9 3 -22
-7 -36 -30z"/>
<path d="M1583 633 l-43 -4 0 -178 c0 -97 -5 -237 -11 -310 -6 -73 -8 -136 -5
-139 10 -9 79 17 121 46 90 61 128 214 87 349 -29 94 -88 237 -98 238 -5 1
-28 0 -51 -2z"/>
</g>
</svg>
