<svg xmlns="http://www.w3.org/2000/svg" style="display: none;">
		<!-- YouTube Icon -->
		<symbol id="icon-youtube" viewBox="0 0 24 24">
			<path
		d="M23.498 6.186a3.016 3.016 0 0 0-2.122-2.136C19.505 3.545 12 3.545 12 3.545s-7.505 0-9.377.505A3.017 3.017 0 0 0 .502 6.186C0 8.07 0 12 0 12s0 3.93.502 5.814a3.016 3.016 0 0 0 2.122 2.136c1.871.505 9.376.505 9.376.505s7.505 0 9.377-.505a3.015 3.015 0 0 0 2.122-2.136C24 15.93 24 12 24 12s0-3.93-.502-5.814zM9.545 15.568V8.432L15.818 12l-6.273 3.568z" />
		</symbol>

		<!-- Spotify Icon -->
		<symbol id="icon-spotify" viewBox="0 0 24 24">
			<path
		d="M12 0C5.4 0 0 5.4 0 12s5.4 12 12 12 12-5.4 12-12S18.66 0 12 0zm5.521 17.34c-.24.359-.66.48-1.021.24-2.82-1.74-6.36-2.101-10.561-1.141-.418.122-.779-.179-.899-.539-.12-.421.18-.78.54-.9 4.56-1.021 8.52-.6 11.64 1.32.42.18.479.659.301 1.02zm1.44-3.3c-.301.42-.841.6-1.262.3-3.239-1.98-8.159-2.58-11.939-1.38-.479.12-1.02-.12-1.14-.6-.12-.48.12-1.021.6-1.141C9.6 9.9 15 10.561 18.72 12.84c.361.181.54.78.241 1.2zm.12-3.36C15.24 8.4 8.82 8.16 5.16 9.301c-.6.179-1.2-.181-1.38-.721-.18-.601.18-1.2.72-1.381 4.26-1.26 11.28-1.02 15.721 1.621.539.3.719 1.02.419 1.56-.299.421-1.02.599-1.559.3z" />

		</symbol>

		<!-- Facebook Icon -->
		<symbol id="icon-facebook" viewBox="0 0 24 24">
			<path
		d="M9.101 23.691v-7.98H6.627v-3.667h2.474v-1.58c0-4.085 1.848-5.978 5.858-5.978.401 0 .955.042 1.468.103a8.68 8.68 0 0 1 1.141.195v3.325a8.623 8.623 0 0 0-.653-.036 26.805 26.805 0 0 0-.733-.009c-.707 0-1.259.096-1.675.309a1.686 1.686 0 0 0-.679.622c-.258.42-.374.995-.374 1.752v1.297h3.919l-.386 2.103-.287 1.564h-3.246v8.245C19.396 23.238 24 18.179 24 12.044c0-6.627-5.373-12-12-12s-12 5.373-12 12c0 5.628 3.874 10.35 9.101 11.647Z" />
		</symbol>

		<!-- Instagram Icon -->
		<symbol id="icon-instagram" viewBox="0 0 24 24">
			<path
		d="M7.0301.084c-1.2768.0602-2.1487.264-2.911.5634-.7888.3075-1.4575.72-2.1228 1.3877-.6652.6677-1.075 1.3368-1.3802 2.127-.2954.7638-.4956 1.6365-.552 2.914-.0564 1.2775-.0689 1.6882-.0626 4.947.0062 3.2586.0206 3.6671.0825 4.9473.061 1.2765.264 2.1482.5635 2.9107.308.7889.72 1.4573 1.388 2.1228.6679.6655 1.3365 1.0743 2.1285 1.38.7632.295 1.6361.4961 2.9134.552 1.2773.056 1.6884.069 4.9462.0627 3.2578-.0062 3.668-.0207 4.9478-.0814 1.28-.0607 2.147-.2652 2.9098-.5633.7889-.3086 1.4578-.72 2.1228-1.3881.665-.6682 1.0745-1.3378 1.3795-2.1284.2957-.7632.4966-1.636.552-2.9124.056-1.2809.0692-1.6898.063-4.948-.0063-3.2583-.021-3.6668-.0817-4.9465-.0607-1.2797-.264-2.1487-.5633-2.9117-.3084-.7889-.72-1.4568-1.3876-2.1228C21.2982 1.33 20.628.9208 19.8378.6165 19.074.321 18.2017.1197 16.9244.0645 15.6471.0093 15.236-.005 11.977.0014 8.718.0076 8.31.0215 7.0301.0839m.1402 21.6932c-1.17-.0509-1.8053-.2453-2.2287-.408-.5606-.216-.96-.4771-1.3819-.895-.422-.4178-.6811-.8186-.9-1.378-.1644-.4234-.3624-1.058-.4171-2.228-.0595-1.2645-.072-1.6442-.079-4.848-.007-3.2037.0053-3.583.0607-4.848.05-1.169.2456-1.805.408-2.2282.216-.5613.4762-.96.895-1.3816.4188-.4217.8184-.6814 1.3783-.9003.423-.1651 1.0575-.3614 2.227-.4171 1.2655-.06 1.6447-.072 4.848-.079 3.2033-.007 3.5835.005 4.8495.0608 1.169.0508 1.8053.2445 2.228.408.5608.216.96.4754 1.3816.895.4217.4194.6816.8176.9005 1.3787.1653.4217.3617 1.056.4169 2.2263.0602 1.2655.0739 1.645.0796 4.848.0058 3.203-.0055 3.5834-.061 4.848-.051 1.17-.245 1.8055-.408 2.2294-.216.5604-.4763.96-.8954 1.3814-.419.4215-.8181.6811-1.3783.9-.4224.1649-1.0577.3617-2.2262.4174-1.2656.0595-1.6448.072-4.8493.079-3.2045.007-3.5825-.006-4.848-.0608M16.953 5.5864A1.44 1.44 0 1 0 18.39 4.144a1.44 1.44 0 0 0-1.437 1.4424M5.8385 12.012c.0067 3.4032 2.7706 6.1557 6.173 6.1493 3.4026-.0065 6.157-2.7701 6.1506-6.1733-.0065-3.4032-2.771-6.1565-6.174-6.1498-3.403.0067-6.156 2.771-6.1496 6.1738M8 12.0077a4 4 0 1 1 4.008 3.9921A3.9996 3.9996 0 0 1 8 12.0077" />
		</symbol>


		<!-- XING Icon -->
		<symbol id="icon-xing" viewBox="0 0 24 24">
			<path
		d="M18.188 0c-.517 0-.741.325-.927.66 0 0-7.455 13.224-7.702 13.657.015.024 4.919 9.023 4.919 9.023.17.308.436.66.967.66h3.454c.211 0 .375-.078.463-.22.089-.151.089-.346-.009-.536l-4.879-8.916c-.004-.006-.004-.016 0-.022L22.139.756c.095-.191.097-.387.006-.535C22.056.078 21.894 0 21.686 0h-3.498zM3.648 4.74c-.211 0-.385.074-.473.216-.09.149-.078.339.02.531l2.34 4.05c.004.01.004.016 0 .021L1.86 16.051c-.099.188-.093.381 0 .529.085.142.239.234.45.234h3.461c.518 0 .766-.348.945-.667l3.734-6.609-2.378-4.155c-.172-.315-.434-.659-.962-.659H3.648v.016z" />
		</symbol>

		<!-- Coachat Icon -->
		<symbol id="icon-coachat" viewBox="0 0 24 24">
			<path
		d="M20,2L4,2c-1.1,0 -1.99,0.9 -1.99,2L2,22l4,-4h14c1.1,0 2,-0.9 2,-2L22,4c0,-1.1 -0.9,-2 -2,-2zM18,14L6,14v-2h12v2zM18,11L6,11L6,9h12v2zM18,8L6,8L6,6h12v2z" />
		</symbol>

		<!-- IT-Art Icon -->
		<symbol id="icon-itart" viewBox="0 0 256 256">
			<g>
				<path
		d="M -0.5,-0.5 C 84.8333,-0.5 170.167,-0.5 255.5,-0.5C 255.5,41.8333 255.5,84.1667 255.5,126.5C 248.313,126.825 241.313,126.491 234.5,125.5C 235.176,119.11 236.176,112.777 237.5,106.5C 232.172,107.357 227.005,108.69 222,110.5C 220.842,115.795 220.009,121.128 219.5,126.5C 212.466,124.978 207.466,127.312 204.5,133.5C 208.783,134.492 213.116,134.826 217.5,134.5C 214.829,148.188 211.995,161.855 209,175.5C 205.169,192.665 211.669,199.498 228.5,196C 232.759,194.066 236.759,191.732 240.5,189C 245.161,184.349 250.161,180.182 255.5,176.5C 255.5,202.833 255.5,229.167 255.5,255.5C 170.167,255.5 84.8333,255.5 -0.5,255.5C -0.5,170.167 -0.5,84.8333 -0.5,-0.5 Z" />
			</g>
			<g>
				<path
		d="M 111.5,126.5 C 112.496,110.675 112.83,94.6754 112.5,78.5C 107.167,78.5 101.833,78.5 96.5,78.5C 96.5,85.8333 96.5,93.1667 96.5,100.5C 96.2996,107.209 92.9663,110.043 86.5,109C 84.9512,107.786 83.7845,106.286 83,104.5C 82.5001,89.5037 82.3334,74.5037 82.5,59.5C 107.5,59.5 132.5,59.5 157.5,59.5C 157.667,73.504 157.5,87.504 157,101.5C 156.015,108.742 152.181,110.909 145.5,108C 144.874,107.25 144.374,106.416 144,105.5C 142.59,96.9164 142.09,88.2498 142.5,79.5C 137.36,78.5119 132.026,78.1786 126.5,78.5C 126.333,99.1694 126.5,119.836 127,140.5C 127.717,139.956 128.217,139.289 128.5,138.5C 134.399,131.465 141.899,127.132 151,125.5C 155.716,125.285 159.049,127.285 161,131.5C 161.492,138.583 161.158,145.583 160,152.5C 165.438,144.063 171.938,136.563 179.5,130C 185.941,125.316 192.774,124.483 200,127.5C 200.667,128.5 200.667,129.5 200,130.5C 197.089,133.99 194.422,137.656 192,141.5C 187.965,137.781 183.798,137.615 179.5,141C 169.291,150.233 161.124,161.066 155,173.5C 153.72,180.844 152.553,188.178 151.5,195.5C 146.203,196.275 140.87,196.608 135.5,196.5C 136.783,188.754 138.449,181.087 140.5,173.5C 128.848,172.334 117.181,172.167 105.5,173C 104.059,177.69 103.392,182.523 103.5,187.5C 105.527,187.662 107.527,187.495 109.5,187C 114.621,183.547 119.454,179.714 124,175.5C 124.328,178.207 123.995,180.874 123,183.5C 118.002,188.831 112.169,192.997 105.5,196C 90.7494,199.448 85.2494,193.614 89,178.5C 89.7104,175.074 90.377,171.741 91,168.5C 86.313,176.858 80.4796,184.358 73.5,191C 67.6834,195.828 61.0168,197.828 53.5,197C 46.7447,193.669 43.4114,188.169 43.5,180.5C 43.7027,177.803 44.036,175.136 44.5,172.5C 31.0679,172.963 17.7345,172.463 4.5,171C 0.5,165.667 0.5,160.333 4.5,155C 11.3846,153.575 18.3846,153.075 25.5,153.5C 25.5,128.5 25.5,103.5 25.5,78.5C 18.3846,78.9247 11.3846,78.4247 4.5,77C 1.64026,73.3186 0.806931,69.1519 2,64.5C 2.83333,62.3333 4.33333,60.8333 6.5,60C 24.1667,59.3333 41.8333,59.3333 59.5,60C 65.4097,64.947 66.0764,70.6137 61.5,77C 54.6154,78.4247 47.6154,78.9247 40.5,78.5C 40.5,103.5 40.5,128.5 40.5,153.5C 48.4335,155.312 53.9335,152.646 57,145.5C 71.3325,128.601 89.4992,122.268 111.5,126.5 Z" />
			</g>
			<g>
				<path
		d="M 255.5,129.5 C 255.5,142.5 255.5,155.5 255.5,168.5C 249.664,173.5 243.664,178.333 237.5,183C 235.283,184.275 232.949,185.275 230.5,186C 223.923,187.591 221.756,185.091 224,178.5C 226.773,163.804 229.606,149.138 232.5,134.5C 238.842,134.666 245.175,134.5 251.5,134C 252.733,132.333 254.067,130.833 255.5,129.5 Z" />
			</g>
			<g>
				<path
		d="M 80.5,134.5 C 86.4235,134.451 92.0902,135.618 97.5,138C 92.8318,157.347 82.4984,173.014 66.5,185C 64.8333,185.667 63.1667,185.667 61.5,185C 59.4165,180.658 59.0831,176.158 60.5,171.5C 62.6365,170.528 63.8032,168.861 64,166.5C 63.0407,157.361 65.374,149.028 71,141.5C 73.8249,138.524 76.9915,136.191 80.5,134.5 Z" />
			</g>
			<g>
				<path
		d="M 142.5,134.5 C 145.893,134.375 147.226,136.042 146.5,139.5C 145.93,144.921 144.93,150.255 143.5,155.5C 138.362,153.667 133.028,153 127.5,153.5C 127.336,150.813 127.503,148.146 128,145.5C 132.45,141.202 137.283,137.535 142.5,134.5 Z" />
			</g>
		</symbol>
		
		<!-- Heilsame Lieder Icon -->
		<symbol id="icon-heilsame-lieder" viewBox="0 0 256 256">
			<path  
				d="
			M121.416664,257.000000 
				C110.413322,252.975922 105.854881,244.892944 105.169739,233.980515 
				C104.998199,231.248550 105.278297,228.569626 106.047798,226.148438 
				C108.154991,219.518188 110.834381,213.072113 113.170891,206.511673 
				C114.958649,201.492050 119.048393,202.338089 122.725960,202.853745 
				C126.669891,203.406723 124.866379,206.748001 124.907249,208.911789 
				C125.205124,224.680939 124.457947,240.467346 125.862564,256.610565 
				C124.611107,257.000000 123.222221,257.000000 121.416664,257.000000 
			z"/>
			<path  
				d="
			M124.583336,1.000000 
				C124.980209,12.306561 124.931694,23.613176 124.953827,34.919655 
				C124.963593,39.911804 125.174431,44.903675 125.174263,49.895668 
				C125.174202,51.709846 125.095299,53.812370 122.768242,54.271599 
				C120.601006,54.699291 118.502037,55.984386 116.138435,54.185173 
				C104.723419,45.495838 102.068008,17.972885 111.652138,7.487736 
				C113.955811,4.967499 117.069191,3.668218 119.801636,1.266674 
				C121.388893,1.000000 122.777779,1.000000 124.583336,1.000000 
			z"/>
			<path  
				d="
			M130.428467,257.000000 
				C132.229126,241.114777 131.555161,225.126556 131.693192,209.167389 
				C131.748383,202.786728 132.257202,202.372620 138.470749,202.523956 
				C140.420547,202.571426 141.582504,203.229492 142.361877,204.938858 
				C145.540909,211.911438 148.615417,218.976959 150.195023,226.466537 
				C153.001007,239.771088 148.719025,248.666397 136.219437,256.748413 
				C134.285645,257.000000 132.571289,257.000000 130.428467,257.000000 
			z"/>
			<path  
				d="
			M134.583344,1.000000 
				C144.374542,5.148862 150.728470,11.762419 151.016907,22.466469 
				C151.231110,30.415920 148.250977,37.769676 145.204285,44.996033 
				C144.817032,45.914566 144.264618,46.762680 143.863235,47.676159 
				C140.509857,55.307636 140.515121,55.309952 131.905807,53.857910 
				C130.930298,36.596893 133.017670,19.082560 129.895706,1.415679 
				C131.388885,1.000000 132.777786,1.000000 134.583344,1.000000 
			z"/>
			<path  
				d="
			M160.457642,80.380806 
				C170.225388,76.628052 170.315903,76.652534 170.316544,86.798737 
				C170.317688,104.792320 170.358749,122.787338 170.131363,140.778580 
				C170.064728,146.049530 172.133789,151.133911 170.445984,156.591904 
				C167.528915,166.025146 160.157318,171.434326 150.593658,170.317917 
				C143.327148,169.469666 136.205856,161.145065 135.765823,152.984589 
				C135.291336,144.185165 144.492416,134.468369 153.273178,134.584702 
				C155.401184,134.612885 157.525116,134.948822 160.592529,135.229355 
				C160.592529,127.962219 160.671005,120.742340 160.549423,113.525826 
				C160.507614,111.044296 158.513733,111.153732 156.854675,111.651398 
				C146.027222,114.899315 135.204803,118.167343 124.426521,121.573685 
				C121.551910,122.482170 122.628822,124.899399 122.756508,127.050972 
				C123.445213,138.655533 124.584763,150.348267 122.224724,161.826706 
				C120.282822,171.271515 112.375801,176.869827 103.415909,176.284973 
				C95.159935,175.746078 88.074142,169.183823 86.792320,160.889618 
				C85.366669,151.664703 90.114876,143.923721 99.091652,140.441620 
				C103.680695,138.661514 107.888786,140.339783 112.130409,141.444077 
				C113.544456,140.310837 112.869507,138.873459 112.893997,137.649261 
				C113.183662,123.166710 113.374451,108.682144 113.685257,94.200119 
				C113.727890,92.214027 112.796509,89.652977 115.768265,88.714874 
				C118.151505,87.962563 120.559135,86.849480 122.041397,90.256027 
				C122.666359,91.692345 124.088852,90.999199 125.144600,90.634300 
				C136.621872,86.667351 148.414474,83.798775 160.457642,80.380806 
			M159.070801,99.523788 
				C161.744385,97.426201 160.488815,94.808891 160.281006,91.802956 
				C147.451401,95.009995 135.188950,98.789268 122.912071,102.844238 
				C123.225990,105.736763 123.468025,108.329765 122.819862,111.486504 
				C134.865982,106.771713 146.691544,103.549492 159.070801,99.523788 
			M112.499420,156.165771 
				C108.953293,150.137939 104.512428,148.353821 100.654564,151.582779 
				C97.944382,153.851151 96.251366,156.904221 97.849731,160.356522 
				C99.368256,163.636353 102.160645,166.205368 106.107582,165.436813 
				C110.492714,164.582901 112.963638,161.659790 112.499420,156.165771 
			M160.968399,151.006485 
				C160.502884,149.961563 160.281601,148.670303 159.524399,147.919571 
				C157.537231,145.949371 155.465363,144.055130 152.160828,145.104156 
				C148.648117,146.219284 147.228241,149.015259 146.665466,152.119247 
				C146.127563,155.086029 148.381210,157.013672 150.652176,158.438370 
				C155.341400,161.380188 159.899414,158.372757 160.968399,151.006485 
			z"/>
			<path  
				d="
			M188.917725,28.929399 
				C190.834869,25.227230 192.576202,21.846592 194.296951,18.505928 
				C199.944916,20.126219 203.764038,26.287193 204.337036,34.210751 
				C204.713852,39.421150 203.191544,44.117001 200.454147,48.397034 
				C195.169678,56.659508 188.112900,63.089828 179.873032,68.413345 
				C175.035431,71.538773 172.460892,67.767761 169.423721,65.654373 
				C166.026962,63.290760 168.831116,60.805424 170.080643,58.780853 
				C176.195786,48.872566 182.502777,39.082672 188.917725,28.929399 
			z"/>
			<path  
				d="
			M197.569962,193.397003 
				C193.937729,189.238174 191.236908,184.877472 188.455719,180.541412 
				C186.134064,176.921768 187.537369,174.482635 189.825272,171.733780 
				C192.170532,168.916046 194.347763,170.721924 196.458786,171.722321 
				C208.018448,177.200302 218.252350,185.051285 229.860977,190.457230 
				C232.693314,191.776199 235.452164,193.252975 238.225281,194.647369 
				C236.389343,200.383850 230.941406,203.633301 223.587173,204.431335 
				C212.887360,205.592392 204.415588,202.000748 197.569962,193.397003 
			z"/>
			<path  
				d="
			M63.292252,238.007477 
				C61.460644,241.291031 60.260174,239.176041 59.127510,237.864685 
				C51.485950,229.017487 50.705463,215.798813 57.567936,206.068893 
				C62.903107,198.504456 69.950905,192.774872 77.997429,188.172943 
				C82.676949,185.496643 85.224915,189.229019 87.918953,191.381561 
				C90.880173,193.747589 87.634048,195.816254 86.344673,197.608841 
				C77.309174,210.170715 69.217018,223.257126 63.292252,238.007477 
			z"/>
			<path  
				d="
			M182.484619,228.587158 
				C184.890228,233.111984 188.727203,236.386307 190.261536,241.742035 
				C182.344269,244.663177 175.168198,243.706390 168.469070,239.217270 
				C159.743439,233.370163 157.370270,223.846649 154.773636,214.549591 
				C154.021057,211.855011 153.691147,209.033905 153.284134,206.253723 
				C152.904190,203.658325 150.994690,200.661346 154.457275,198.783188 
				C159.965912,195.795227 162.028336,196.151962 165.609497,200.569962 
				C169.079254,204.850525 171.883133,209.602554 174.262573,214.532471 
				C176.586166,219.346664 179.315338,223.873840 182.484619,228.587158 
			z"/>
			<path  
				d="
			M34.373562,187.372864 
				C43.815376,182.337753 51.895470,175.734695 61.256954,171.304810 
				C66.234940,168.949203 68.271095,169.761505 70.454231,174.307251 
				C70.909958,175.256165 71.331200,176.219162 70.705673,177.131775 
				C62.963425,188.427231 56.453194,201.245331 41.458420,204.562866 
				C33.858486,206.244308 27.057076,203.383774 21.353117,198.213745 
				C19.146175,196.213364 19.104038,194.278351 22.223711,192.914688 
				C26.189037,191.181366 30.104555,189.334106 34.373562,187.372864 
			z"/>
			<path  
				d="
			M192.209808,70.336220 
				C195.651154,65.795815 199.018143,61.673042 203.674088,58.894966 
				C213.820847,52.840694 224.070724,52.789169 234.297836,58.663757 
				C236.924637,60.172634 239.066376,62.229092 239.798538,65.725090 
				C231.889114,68.669693 223.693558,70.663414 216.094467,74.405228 
				C209.239441,77.780647 202.636948,81.583466 195.889786,85.134476 
				C194.261581,85.991386 192.598511,88.116745 190.590698,86.216103 
				C188.500275,84.237251 186.977158,81.830528 188.090210,78.663902 
				C189.084351,75.835480 190.234100,73.086861 192.209808,70.336220 
			z"/>
			<path  
				d="
			M72.866928,39.202827 
				C77.520737,46.313740 82.023018,53.091988 86.378578,59.963238 
				C87.867088,62.311485 89.695129,64.863441 86.265282,67.296852 
				C83.146248,69.509743 80.553085,73.113007 76.223701,68.713104 
				C70.526680,62.923279 63.530579,58.530258 58.225452,52.260368 
				C51.757233,44.615879 51.229652,31.073008 57.229362,23.061829 
				C60.511135,18.679804 62.203747,18.813532 64.263779,23.672852 
				C66.539742,29.041523 69.189339,34.198078 72.866928,39.202827 
			z"/>
			<path  
				d="
			M73.088257,28.906515 
				C69.937630,25.299671 67.014091,21.964079 64.095558,18.634201 
				C69.962959,13.678585 83.431450,14.566936 89.732742,20.652534 
				C99.797806,30.373087 102.779045,43.070370 103.244179,56.516113 
				C103.379387,60.424618 99.518585,60.174221 97.169540,61.329689 
				C94.676254,62.556107 93.661629,60.622055 92.573936,58.845802 
				C86.415016,48.788044 80.973015,38.262726 73.088257,28.906515 
			z"/>
			<path  
				d="
			M189.034729,228.855072 
				C182.787323,216.344528 176.421509,204.335709 167.927429,193.716995 
				C174.520905,186.774094 175.149857,186.795471 182.734772,191.424637 
				C189.205582,195.373856 194.867828,200.098633 199.160065,206.404175 
				C206.416016,217.063568 204.342422,232.712082 194.449127,239.671249 
				C191.948044,236.548416 191.179047,232.544388 189.034729,228.855072 
			z"/>
			<path  
				d="
			M74.067932,242.416794 
				C71.539566,242.187180 69.236099,243.001221 67.246613,240.844528 
				C68.162323,236.661804 71.269630,233.502625 73.422249,229.900467 
				C79.654510,219.471527 85.558861,208.828629 92.757027,199.000366 
				C94.146828,197.102753 95.259361,195.012070 98.318939,196.396637 
				C101.096840,197.653732 103.724838,198.426468 103.423378,202.546707 
				C102.632988,213.349701 100.136185,223.628830 94.237549,232.752518 
				C89.721756,239.737305 82.726540,242.520218 74.067932,242.416794 
			z"/>
			<path  
				d="
			M156.646393,35.948509 
				C160.184326,22.365089 168.804245,15.349674 182.289612,14.122457 
				C185.842331,13.799149 189.233200,14.091503 192.646439,16.714882 
				C190.088593,20.472012 186.429199,23.135904 183.700775,26.591814 
				C176.349182,35.903606 170.355515,46.034916 164.636383,56.349159 
				C162.471085,60.254162 160.008774,60.500893 156.047104,59.004169 
				C152.010056,57.478973 152.358887,54.784363 152.966949,51.829281 
				C154.034622,46.640442 155.345062,41.501556 156.646393,35.948509 
			z"/>
			<path  
				d="
			M45.071449,55.361309 
				C57.139111,58.939045 63.779198,67.497444 68.481247,78.045593 
				C70.313217,82.155281 69.300110,85.400925 65.414757,88.157791 
				C58.858955,83.688232 51.986832,79.738174 44.968147,76.017403 
				C38.024254,72.336281 30.683228,69.812927 23.194435,67.610878 
				C18.131628,66.122177 17.847466,64.551102 21.560068,60.683487 
				C28.129328,53.839951 36.224617,53.879646 45.071449,55.361309 
			z"/>
			<path  
				d="
			M59.827919,101.832253 
				C59.012737,103.888535 57.887917,104.134232 56.109211,103.837692 
				C47.760792,102.445900 39.449131,100.874283 31.457071,98.060074 
				C20.260008,94.117287 13.455496,81.713478 16.750513,70.562088 
				C31.435415,76.742386 46.208797,82.464630 59.149521,91.957130 
				C63.027809,94.802002 60.714745,98.208061 59.827919,101.832253 
			z"/>
			<path  
				d="
			M215.519592,82.442902 
				C224.330994,78.464989 232.136749,72.925735 241.720184,71.700958 
				C243.604889,81.559021 238.969299,91.334541 230.487747,96.126778 
				C221.725830,101.077408 211.921722,101.962517 202.241531,103.170822 
				C197.781036,103.727592 198.007965,99.290314 196.453323,96.833305 
				C194.987030,94.515907 196.626846,93.199135 198.207626,91.864487 
				C203.236618,87.618515 209.414459,85.487511 215.519592,82.442902 
			z"/>
			<path  
				d="
			M46.505867,172.536530 
				C38.013985,178.171143 29.630131,183.265259 20.814178,187.629578 
				C16.696781,189.667908 15.850126,189.221024 15.663089,184.750687 
				C15.212282,173.976044 21.605547,163.811905 31.640074,160.022552 
				C39.438427,157.077652 47.397575,154.880569 55.972099,155.539276 
				C59.364292,155.799881 60.554943,157.550522 61.540714,160.184113 
				C62.686840,163.246109 60.479691,164.424545 58.496597,165.615555 
				C54.645397,167.928528 50.716846,170.112717 46.505867,172.536530 
			z"/>
			<path  
				d="
			M200.906464,167.237747 
				C198.819611,165.635040 194.875397,165.881485 195.760529,162.420242 
				C196.688263,158.792572 198.143875,154.514191 203.025558,154.884460 
				C214.867554,155.782684 226.670258,157.297272 235.474014,166.575653 
				C241.112808,172.518448 243.014557,183.395370 239.572144,189.436615 
				C226.581024,182.472321 214.783630,173.380844 200.906464,167.237747 
			z"/>
			<path  
				d="
			M230.455383,125.720215 
				C222.839264,125.539589 215.685455,125.433189 208.531677,125.325020 
				C206.513153,125.294502 204.450897,125.357422 203.470612,123.031395 
				C202.579330,120.916504 204.026291,119.559685 205.126312,118.151482 
				C216.712418,103.319397 242.409424,102.790810 252.099045,117.166679 
				C252.285095,117.442726 252.530136,117.691460 252.660110,117.990936 
				C253.820557,120.664459 256.750305,123.488861 254.828796,126.193245 
				C253.128662,128.586044 249.596680,127.059608 246.833939,126.855164 
				C241.531372,126.462791 236.223419,126.143417 230.455383,125.720215 
			z"/>
			<path  
				d="
			M242.709534,150.091476 
				C228.194366,154.351379 216.292130,149.655670 205.549850,140.703339 
				C203.495316,138.991150 202.718765,136.572372 203.747070,133.925659 
				C204.919022,130.909195 207.433426,132.515854 209.375992,132.521515 
				C222.355209,132.559387 235.334183,132.690674 248.313187,132.797592 
				C250.449539,132.815186 252.616135,132.320892 255.356613,133.336365 
				C254.014816,140.960052 249.951355,146.427917 242.709534,150.091476 
			z"/>
			<path  
				d="
			M53.030537,118.275925 
				C54.944851,119.983673 55.812855,121.697517 54.892109,123.850426 
				C54.136478,125.617264 52.425053,125.313370 50.981495,125.293648 
				C36.505539,125.095955 22.065901,125.638298 7.667367,127.207245 
				C6.203451,127.366760 4.662867,127.413452 3.327072,126.506805 
				C3.242950,118.091957 10.350936,109.497856 19.535196,107.687881 
				C32.360035,105.160431 43.533588,108.614098 53.030537,118.275925 
			z"/>
			<path  
				d="
			M9.466146,145.571503 
				C5.862628,142.172913 3.355006,138.586960 3.025267,133.881332 
				C4.228096,132.311371 5.837267,132.664154 7.243023,132.746887 
				C21.701294,133.597977 36.149704,132.080765 50.604622,132.608887 
				C52.185551,132.666626 54.075176,131.854568 54.886662,134.038269 
				C55.689148,136.197784 54.739311,137.602005 53.159016,139.230499 
				C47.911259,144.638321 41.675186,148.097992 34.512821,150.274277 
				C25.414238,153.038910 17.157259,151.966537 9.466146,145.571503 
			z"/>
		</symbol>		
	</svg>
