<svg xmlns="http://www.w3.org/2000/svg" style="display: none;">
		<!-- YouTube Icon -->
		<symbol id="icon-youtube" viewBox="0 0 24 24">
			<path
		d="M23.498 6.186a3.016 3.016 0 0 0-2.122-2.136C19.505 3.545 12 3.545 12 3.545s-7.505 0-9.377.505A3.017 3.017 0 0 0 .502 6.186C0 8.07 0 12 0 12s0 3.93.502 5.814a3.016 3.016 0 0 0 2.122 2.136c1.871.505 9.376.505 9.376.505s7.505 0 9.377-.505a3.015 3.015 0 0 0 2.122-2.136C24 15.93 24 12 24 12s0-3.93-.502-5.814zM9.545 15.568V8.432L15.818 12l-6.273 3.568z" />
		</symbol>

		<!-- Spotify Icon -->
		<symbol id="icon-spotify" viewBox="0 0 24 24">
			<path
		d="M12 0C5.4 0 0 5.4 0 12s5.4 12 12 12 12-5.4 12-12S18.66 0 12 0zm5.521 17.34c-.24.359-.66.48-1.021.24-2.82-1.74-6.36-2.101-10.561-1.141-.418.122-.779-.179-.899-.539-.12-.421.18-.78.54-.9 4.56-1.021 8.52-.6 11.64 1.32.42.18.479.659.301 1.02zm1.44-3.3c-.301.42-.841.6-1.262.3-3.239-1.98-8.159-2.58-11.939-1.38-.479.12-1.02-.12-1.14-.6-.12-.48.12-1.021.6-1.141C9.6 9.9 15 10.561 18.72 12.84c.361.181.54.78.241 1.2zm.12-3.36C15.24 8.4 8.82 8.16 5.16 9.301c-.6.179-1.2-.181-1.38-.721-.18-.601.18-1.2.72-1.381 4.26-1.26 11.28-1.02 15.721 1.621.539.3.719 1.02.419 1.56-.299.421-1.02.599-1.559.3z" />

		</symbol>

		<!-- Facebook Icon -->
		<symbol id="icon-facebook" viewBox="0 0 24 24">
			<path
		d="M9.101 23.691v-7.98H6.627v-3.667h2.474v-1.58c0-4.085 1.848-5.978 5.858-5.978.401 0 .955.042 1.468.103a8.68 8.68 0 0 1 1.141.195v3.325a8.623 8.623 0 0 0-.653-.036 26.805 26.805 0 0 0-.733-.009c-.707 0-1.259.096-1.675.309a1.686 1.686 0 0 0-.679.622c-.258.42-.374.995-.374 1.752v1.297h3.919l-.386 2.103-.287 1.564h-3.246v8.245C19.396 23.238 24 18.179 24 12.044c0-6.627-5.373-12-12-12s-12 5.373-12 12c0 5.628 3.874 10.35 9.101 11.647Z" />
		</symbol>

		<!-- Instagram Icon -->
		<symbol id="icon-instagram" viewBox="0 0 24 24">
			<path
		d="M7.0301.084c-1.2768.0602-2.1487.264-2.911.5634-.7888.3075-1.4575.72-2.1228 1.3877-.6652.6677-1.075 1.3368-1.3802 2.127-.2954.7638-.4956 1.6365-.552 2.914-.0564 1.2775-.0689 1.6882-.0626 4.947.0062 3.2586.0206 3.6671.0825 4.9473.061 1.2765.264 2.1482.5635 2.9107.308.7889.72 1.4573 1.388 2.1228.6679.6655 1.3365 1.0743 2.1285 1.38.7632.295 1.6361.4961 2.9134.552 1.2773.056 1.6884.069 4.9462.0627 3.2578-.0062 3.668-.0207 4.9478-.0814 1.28-.0607 2.147-.2652 2.9098-.5633.7889-.3086 1.4578-.72 2.1228-1.3881.665-.6682 1.0745-1.3378 1.3795-2.1284.2957-.7632.4966-1.636.552-2.9124.056-1.2809.0692-1.6898.063-4.948-.0063-3.2583-.021-3.6668-.0817-4.9465-.0607-1.2797-.264-2.1487-.5633-2.9117-.3084-.7889-.72-1.4568-1.3876-2.1228C21.2982 1.33 20.628.9208 19.8378.6165 19.074.321 18.2017.1197 16.9244.0645 15.6471.0093 15.236-.005 11.977.0014 8.718.0076 8.31.0215 7.0301.0839m.1402 21.6932c-1.17-.0509-1.8053-.2453-2.2287-.408-.5606-.216-.96-.4771-1.3819-.895-.422-.4178-.6811-.8186-.9-1.378-.1644-.4234-.3624-1.058-.4171-2.228-.0595-1.2645-.072-1.6442-.079-4.848-.007-3.2037.0053-3.583.0607-4.848.05-1.169.2456-1.805.408-2.2282.216-.5613.4762-.96.895-1.3816.4188-.4217.8184-.6814 1.3783-.9003.423-.1651 1.0575-.3614 2.227-.4171 1.2655-.06 1.6447-.072 4.848-.079 3.2033-.007 3.5835.005 4.8495.0608 1.169.0508 1.8053.2445 2.228.408.5608.216.96.4754 1.3816.895.4217.4194.6816.8176.9005 1.3787.1653.4217.3617 1.056.4169 2.2263.0602 1.2655.0739 1.645.0796 4.848.0058 3.203-.0055 3.5834-.061 4.848-.051 1.17-.245 1.8055-.408 2.2294-.216.5604-.4763.96-.8954 1.3814-.419.4215-.8181.6811-1.3783.9-.4224.1649-1.0577.3617-2.2262.4174-1.2656.0595-1.6448.072-4.8493.079-3.2045.007-3.5825-.006-4.848-.0608M16.953 5.5864A1.44 1.44 0 1 0 18.39 4.144a1.44 1.44 0 0 0-1.437 1.4424M5.8385 12.012c.0067 3.4032 2.7706 6.1557 6.173 6.1493 3.4026-.0065 6.157-2.7701 6.1506-6.1733-.0065-3.4032-2.771-6.1565-6.174-6.1498-3.403.0067-6.156 2.771-6.1496 6.1738M8 12.0077a4 4 0 1 1 4.008 3.9921A3.9996 3.9996 0 0 1 8 12.0077" />
		</symbol>


		<!-- XING Icon -->
		<symbol id="icon-xing" viewBox="0 0 24 24">
			<path
		d="M18.188 0c-.517 0-.741.325-.927.66 0 0-7.455 13.224-7.702 13.657.015.024 4.919 9.023 4.919 9.023.17.308.436.66.967.66h3.454c.211 0 .375-.078.463-.22.089-.151.089-.346-.009-.536l-4.879-8.916c-.004-.006-.004-.016 0-.022L22.139.756c.095-.191.097-.387.006-.535C22.056.078 21.894 0 21.686 0h-3.498zM3.648 4.74c-.211 0-.385.074-.473.216-.09.149-.078.339.02.531l2.34 4.05c.004.01.004.016 0 .021L1.86 16.051c-.099.188-.093.381 0 .529.085.142.239.234.45.234h3.461c.518 0 .766-.348.945-.667l3.734-6.609-2.378-4.155c-.172-.315-.434-.659-.962-.659H3.648v.016z" />
		</symbol>

		<!-- Coachat Icon -->
		<symbol id="icon-coachat" viewBox="0 0 24 24">
			<path
		d="M20,2L4,2c-1.1,0 -1.99,0.9 -1.99,2L2,22l4,-4h14c1.1,0 2,-0.9 2,-2L22,4c0,-1.1 -0.9,-2 -2,-2zM18,14L6,14v-2h12v2zM18,11L6,11L6,9h12v2zM18,8L6,8L6,6h12v2z" />
		</symbol>

		<!-- IT-Art Icon -->
		<symbol id="icon-itart" viewBox="0 0 256 256">
			<g>
				<path
		d="M -0.5,-0.5 C 84.8333,-0.5 170.167,-0.5 255.5,-0.5C 255.5,41.8333 255.5,84.1667 255.5,126.5C 248.313,126.825 241.313,126.491 234.5,125.5C 235.176,119.11 236.176,112.777 237.5,106.5C 232.172,107.357 227.005,108.69 222,110.5C 220.842,115.795 220.009,121.128 219.5,126.5C 212.466,124.978 207.466,127.312 204.5,133.5C 208.783,134.492 213.116,134.826 217.5,134.5C 214.829,148.188 211.995,161.855 209,175.5C 205.169,192.665 211.669,199.498 228.5,196C 232.759,194.066 236.759,191.732 240.5,189C 245.161,184.349 250.161,180.182 255.5,176.5C 255.5,202.833 255.5,229.167 255.5,255.5C 170.167,255.5 84.8333,255.5 -0.5,255.5C -0.5,170.167 -0.5,84.8333 -0.5,-0.5 Z" />
			</g>
			<g>
				<path style="opacity:1" fill="#000000"
		d="M 111.5,126.5 C 112.496,110.675 112.83,94.6754 112.5,78.5C 107.167,78.5 101.833,78.5 96.5,78.5C 96.5,85.8333 96.5,93.1667 96.5,100.5C 96.2996,107.209 92.9663,110.043 86.5,109C 84.9512,107.786 83.7845,106.286 83,104.5C 82.5001,89.5037 82.3334,74.5037 82.5,59.5C 107.5,59.5 132.5,59.5 157.5,59.5C 157.667,73.504 157.5,87.504 157,101.5C 156.015,108.742 152.181,110.909 145.5,108C 144.874,107.25 144.374,106.416 144,105.5C 142.59,96.9164 142.09,88.2498 142.5,79.5C 137.36,78.5119 132.026,78.1786 126.5,78.5C 126.333,99.1694 126.5,119.836 127,140.5C 127.717,139.956 128.217,139.289 128.5,138.5C 134.399,131.465 141.899,127.132 151,125.5C 155.716,125.285 159.049,127.285 161,131.5C 161.492,138.583 161.158,145.583 160,152.5C 165.438,144.063 171.938,136.563 179.5,130C 185.941,125.316 192.774,124.483 200,127.5C 200.667,128.5 200.667,129.5 200,130.5C 197.089,133.99 194.422,137.656 192,141.5C 187.965,137.781 183.798,137.615 179.5,141C 169.291,150.233 161.124,161.066 155,173.5C 153.72,180.844 152.553,188.178 151.5,195.5C 146.203,196.275 140.87,196.608 135.5,196.5C 136.783,188.754 138.449,181.087 140.5,173.5C 128.848,172.334 117.181,172.167 105.5,173C 104.059,177.69 103.392,182.523 103.5,187.5C 105.527,187.662 107.527,187.495 109.5,187C 114.621,183.547 119.454,179.714 124,175.5C 124.328,178.207 123.995,180.874 123,183.5C 118.002,188.831 112.169,192.997 105.5,196C 90.7494,199.448 85.2494,193.614 89,178.5C 89.7104,175.074 90.377,171.741 91,168.5C 86.313,176.858 80.4796,184.358 73.5,191C 67.6834,195.828 61.0168,197.828 53.5,197C 46.7447,193.669 43.4114,188.169 43.5,180.5C 43.7027,177.803 44.036,175.136 44.5,172.5C 31.0679,172.963 17.7345,172.463 4.5,171C 0.5,165.667 0.5,160.333 4.5,155C 11.3846,153.575 18.3846,153.075 25.5,153.5C 25.5,128.5 25.5,103.5 25.5,78.5C 18.3846,78.9247 11.3846,78.4247 4.5,77C 1.64026,73.3186 0.806931,69.1519 2,64.5C 2.83333,62.3333 4.33333,60.8333 6.5,60C 24.1667,59.3333 41.8333,59.3333 59.5,60C 65.4097,64.947 66.0764,70.6137 61.5,77C 54.6154,78.4247 47.6154,78.9247 40.5,78.5C 40.5,103.5 40.5,128.5 40.5,153.5C 48.4335,155.312 53.9335,152.646 57,145.5C 71.3325,128.601 89.4992,122.268 111.5,126.5 Z" />
			</g>
			<g>
				<path
		d="M 255.5,129.5 C 255.5,142.5 255.5,155.5 255.5,168.5C 249.664,173.5 243.664,178.333 237.5,183C 235.283,184.275 232.949,185.275 230.5,186C 223.923,187.591 221.756,185.091 224,178.5C 226.773,163.804 229.606,149.138 232.5,134.5C 238.842,134.666 245.175,134.5 251.5,134C 252.733,132.333 254.067,130.833 255.5,129.5 Z" />
			</g>
			<g>
				<path
		d="M 80.5,134.5 C 86.4235,134.451 92.0902,135.618 97.5,138C 92.8318,157.347 82.4984,173.014 66.5,185C 64.8333,185.667 63.1667,185.667 61.5,185C 59.4165,180.658 59.0831,176.158 60.5,171.5C 62.6365,170.528 63.8032,168.861 64,166.5C 63.0407,157.361 65.374,149.028 71,141.5C 73.8249,138.524 76.9915,136.191 80.5,134.5 Z" />
			</g>
			<g>
				<path
		d="M 142.5,134.5 C 145.893,134.375 147.226,136.042 146.5,139.5C 145.93,144.921 144.93,150.255 143.5,155.5C 138.362,153.667 133.028,153 127.5,153.5C 127.336,150.813 127.503,148.146 128,145.5C 132.45,141.202 137.283,137.535 142.5,134.5 Z" />
			</g>
		</symbol>
	</svg>
